<svg xmlns="http://www.w3.org/2000/svg" width="250" height="250" fill="none" viewBox="0 0 250 250">
<!-- SVG created with Arrow, by QuiverAI (https://quiver.ai) -->
  <path d="m236.7 167.9-92.02-143.6c-11.08-18.3-38-18.3-50.43-1.13l-87.35 144.4c-9.99 16.78 1.37 41.36 23.2 41.5h179.1c19.88 0 36.53-22.32 27.53-41.21z" fill="url(#paint0_linear_505_21708)"/>
  <path d="m117.4 11.09c-9.29-0.82-17.42 4.89-23.12 12.07l-67.45 109.7c4.58 4.63 13-2.04 20.3-9.78 3.64-3.03 4.77 0.37 2.18 4.57l-20.16 34.51c-7.29 12.76 1.94 28.74 17.15 29l81.78-0.41c11.85 0 15.82-8.09 14.45-16.75l-9.52-13.93 19.89 9.14c6.95-0.74 13.34-10.8 11.15-20.05l14.09-20.91-0.13-23.3-33.3-80.62c-4.78-7.7-13.7-13.2-27.31-13.2z" fill="#B7E5F7" opacity=".2"/>
  <path d="m113.2 11.5c-7.49 1.32-14 5.87-18.95 12.41l15.92-11.81c10.78 1.68 13.31 12.91 6.93 21.32l-3.05 2.37 6-0.46c8.16 1.13 13.69 4.76 17.13 11.76l25.88 37.04c3.19-3.02 1.85-11.02-2.66-21.02l-19.35-39.95c-5.85-7.65-14.25-12.39-27.85-11.66z" fill="url(#paint1_linear_505_21708)" opacity=".5"/>
  <path d="m176.8 109.7-39.95-63.35c-8.09-13.08-29.63-13.43-38.6-1.03l-67.82 114.8c-7.8 13.42 1.53 30.57 17.09 30.57l79.93-0.12c10.88 0 20.43-7.18 23.3-18.18l26.88-46.13c1.88-3.41 1.44-11.57-0.83-16.57z" fill="url(#paint2_linear_505_21708)"/>
  <path d="m134.9 43.25 35.93 56.76 3.19 6.1 2.9 4.64c-2.79-5.56-4.29-11.92-3.65-18.62l-10.07-15.32-26.15-31.9c-0.63-0.7-1.37-1.2-2.15-1.66z" fill="#8BC9EF" opacity=".2"/>
  <path d="m28.71 165.2c-0.22 11.1 8.07 16.78 20.15 16.78l28.36-0.65c38.69-4.18 52.6-9.57 66.81-21.26 10.9-9.55 18.03-22.23 17.68-32.99l-23.95-58.07 31.55 31.1 7.77 16.16c1.88 4.01 1.39 6.94-0.17 10.34l-21.6 43.39c-5.7 0-24.3 7.7-27.2 20.35l-80.2 0.32c-11.85 0-20.79-10.97-19.2-25.47z" fill="url(#paint3_linear_505_21708)" opacity=".3"/>
  <path d="m113 37.94c-4.17-4.53-10.8-2.98-14.25 1.68-6.59 8.87-14.66 19.54-17.11 27.41-2.01 6.79 2.54 10.76 6.45 10.76 4.07 0 6.78-2.68 9.15-7.6 3.39-6.58 8.98-14.76 14.97-21.61 2.9-3.37 2.72-8.37 0.79-10.64z" fill="#FEFFFE"/>
  <path d="m78.89 80.62c-5.53 0.71-7.82 6.47-6.71 9.42 1.33 3.77 3.93 4.87 6.54 4.69 4.43-0.32 6.47-3.1 6.79-6.64 0.31-3.23-1.84-7.98-6.62-7.47z" fill="#FEFFFE"/>
  <path d="m91.51 102.2c-5.39 0.29-7.07 5.19-6.77 7.56 0.57 4.39 3.84 6.52 6.87 6.38 4.71-0.22 6.67-4 6.53-7.3-0.26-3.75-2.85-6.84-6.63-6.64z" fill="#3D496A"/>
  <path d="m146.8 102.4c-5.7 0.3-7.2 5.51-6.98 7.45 0.38 4.55 3.89 6.5 6.79 6.25 4.96-0.4 6.9-3.75 6.87-7.27-0.18-3.7-3.08-6.65-6.68-6.43z" fill="#3D496A"/>
  <path d="m127.8 115.4c-1.38-0.22-2.15 0.92-2.64 1.97-1.51 2.65-3.66 3.52-6.01 3.52-3.39 0-5.29-1.5-6.75-4.27-0.8-1.4-2.18-1.7-3.24-1-1.37 0.92-1.11 2.55-0.41 3.81 2.52 4.04 6.01 5.49 10.31 5.35 4.7-0.25 7.89-2.62 10.14-6.66 0.86-1.7 0-2.52-1.4-2.72z" fill="#3D496A"/>
  <path d="m81.91 118.6c-7.2 0.36-11.53 3.4-11.45 6 0.16 3.99 5.69 5.66 11.69 5.55 6.56-0.12 10.57-2.86 10.57-5.55 0-3.45-4.61-6.21-10.81-6z" fill="#FCC5D0"/>
  <path d="m156.2 118.6c-7.81 0.16-11.13 3.4-11.13 5.84 0 3.99 5.03 5.6 11.32 5.44 6.95-0.19 11.05-2.93 11.05-5.59 0-3.45-3.83-5.84-11.24-5.69z" fill="#FCC5D0"/>
  <path d="m238.6 76.06c-3.04-2.49-7.11-1.44-9.04 2.13l-7.9 15.79c-3.55 6.3-10.9 5.95-15.82 2.21-3.38-2.69-3.57-6.68-1.78-10.13l6.27-14.35c2.33-5.08-1.17-9.8-6.09-9.45-18.07 0.99-32.9 16.52-33.27 34.9-0.15 6.85 1.8 13.5 5.14 19.25 2.06 3.6 2.41 6.46 0.85 9.87l-16.8 39.75c-2.27 5.04-1.99 10.28 0.6 14.09l4.3 6.58c2.86 4.01 3.04 8.36 1.11 12.85l-4.3 10.17c-2.59 6.09-0.66 20.99 5.9 28.94 14.47-0.45 29.19-13.75 30.19-29.73l10.28-0.12c0.86-4.8 0.42-9.72-2.08-14.9l-1.5-4.29c11.15-4.92 17.88-18.86 9.6-33.54l2.68-18.38c16.52-4.01 29.77-18.72 30.12-37.1 0.18-8.97-2.97-18.44-8.46-24.54z" fill="#519AD6" opacity=".2"/>
  <path d="m237.9 76.06c-2.68-2.77-6.6-0.95-8.16 2.75l-7.44 15.17c-3.55 6.3-10.9 5.95-15.82 2.21-3.97-3.08-5.18-7.27-2.87-12.26l5.7-12.92c2.06-4.49-0.21-9.1-5.13-8.75-18.07 0.99-32.9 16.52-33.27 34.9-0.15 6.85 1.8 13.5 5.14 19.25 2.06 3.6 2.41 6.46 0.85 9.87l-16.8 39.75c-2.9 6.58-0.98 12.2 2.9 16.69l2 3.29c2.86 4 3.04 8.36 1.11 12.85l-4.3 10.17c-2.9 6.58-1.71 18.05 1.19 28.33 1.6 1.55 4.28 1.83 5.7 1.3 14.98-2.95 28.7-16.48 29.2-34.43 0.15-6.3-1.63-12.11-4.7-17.29-2.05-3.6-1.98-6.65-0.42-10.32l14.47-35.4c2.27-5.18 4.35-5.03 7.85-5.56 16.51-3.28 30.7-18.45 27.8-42.58-0.78-6.97-3.49-15.29-5-17.02z" fill="url(#paint4_linear_505_21708)"/>
  <path d="m237.8 76.21c-1.83-2-5.14-0.55-6.04 2.71l0.71 5.15c0.78 4.42-5.62 22.4-15.52 22.75-6.8 0.25-11.2-4.14-15.3-7.81-4.55-4.1-4.3-10.92-1.9-15.6l5.48-11.3c1.83-3.75 2.02-9.25-0.48-9.78 4.61-0.35 6.67 4.27 4.61 8.76l-6.56 14.62c-2.27 4.76-0.54 9.52 4.53 12.35 6 3.2 11.85 1.32 14.32-3.65l8.21-16.05c1.47-2.83 5.27-4.39 7.94-2.15z" fill="#FEFFFE" opacity=".3"/>
  <path d="m191 181c-0.3 3.91 2.2 8.1 4.12 8.9 7.88-0.6 18.78-9.85 18.78-20.3 0-6.3-2.4-11.86-8.7-20.33l-13.2 28.71c-0.78 1.72-1 2.42-1 3.02z" fill="#F15A74" opacity=".3"/>
  <path d="m178.1 129.9-15.96 39.18c-1.34 3.32-2.84 3.6-4.22 2.72-1.38-0.87-0.63-4 0.75-5.63l16.52-38.92c1-2.44 3.9-2.09 2.91 2.65z" fill="#FEFFFE" opacity=".3"/>
  <path d="m172.1 167.1 14.77-35.88c1.82-2.77 8.22-3.47 10.72-0.28 2.5 2.95 1.12 7.81-0.7 11.48l-12.75 29.88c-2.9 4.76-12.04 3.9-12.04-5.2z" fill="#F15A74" opacity=".3"/>
  <path d="m176.3 185.1c2.5 4.01 6 7.03 7.5 13.62 2.25 9.9-5.65 23.84-13.55 26.2-2.59 0.7-4.84-1.5-2.92-6.25l1.92-5.85c2.25-7.6-6.89-14.65-13.84-14.2-6 0.35-8.9 4.2-11.16 9.7-2.5 6.1-6 8.46-9.55 6.1-4.55-2.95-7.6-10.4-6.6-16.98 2.25-14.29 13.15-25.82 27-28.19 3.5-0.7 6.18-0.15 8.1 1.4 6 3.55 9.91 9.65 13.1 14.45z" fill="url(#paint5_linear_505_21708)" opacity=".3"/>
  <path d="m197.9 68.61c-10.2 2.65-18.8 11.5-20.4 22.3-0.45 2.95 0.75 3.82 2.13 3.82 1.37 0 2.55-0.87 3.12-3.82 2.15-7.95 6.35-12.85 14.55-16.04 3.5-1.45 3.95-7.21 0.6-6.26z" fill="#FEFFFE"/>
  <path d="m180.4 99.01c-2.72 0.2-3.22 2.1-2.9 3.21 0.5 1.64 1.7 1.99 2.6 1.89 1.93-0.25 2.6-1.7 2.55-2.9-0.1-1.35-0.95-2.35-2.25-2.2z" fill="#FEFFFE"/>
  <path d="m157.7 174.1c-10.2 2.65-18.8 7.95-22.5 18.75-0.9 2.65 0.57 3.75 1.95 3.75 1.37 0 2.27-0.87 3.27-3.45 3.35-7.95 8.55-11.45 16.75-13.82 3.5-1.1 3.88-6.18 0.53-5.23z" fill="#FEFFFE"/>
  <path d="m224.9 147.6c-5.77-0.35-8.72 4.5-11.07 10.49l-2.68-4.32 5.85-17.07c1.93 0.35 3.08 5.49 7.9 10.9z" fill="#519AD6" opacity=".2"/>
  <path d="m8.06 196.1c4.17 2.5 18.85 3.85 35.36 4h39.24c14.46-0.35 27.21-1.8 33.35-7.99l-68.1 0.15c-12.3 0-29.75 5.74-39.85 3.84z" fill="#8BC9EF" opacity=".2"/>
  <defs>
    <linearGradient id="paint0_linear_505_21708" x1="122.1" x2="122.1" y1="10.6" y2="209.1" gradientUnits="userSpaceOnUse">
      <stop stop-color="#B7E5F7" offset="0"/>
      <stop stop-color="#96C8ED" offset="1"/>
    </linearGradient>
    <linearGradient id="paint1_linear_505_21708" x1="106.1" x2="148.9" y1="11.28" y2="77.09" gradientUnits="userSpaceOnUse">
      <stop stop-color="#D3F0F6" offset="0"/>
      <stop stop-color="#96C8ED" offset="1"/>
    </linearGradient>
    <linearGradient id="paint2_linear_505_21708" x1="101.7" x2="101.7" y1="34.87" y2="190.7" gradientUnits="userSpaceOnUse">
      <stop stop-color="#FAF7EE" offset="0"/>
      <stop stop-color="#F9E3E5" offset="1"/>
    </linearGradient>
    <linearGradient id="paint3_linear_505_21708" x1="99.71" x2="99.71" y1="69.02" y2="182.2" gradientUnits="userSpaceOnUse">
      <stop stop-color="#F9D0D2" offset="0"/>
      <stop stop-color="#F9D0D2" stop-opacity=".46" offset="1"/>
    </linearGradient>
    <linearGradient id="paint4_linear_505_21708" x1="199.5" x2="199.5" y1="62.22" y2="238.9" gradientUnits="userSpaceOnUse">
      <stop stop-color="#C7E9F7" offset="0"/>
      <stop stop-color="#96C8ED" offset="1"/>
    </linearGradient>
    <linearGradient id="paint5_linear_505_21708" x1="161" x2="161" y1="168.9" y2="225.2" gradientUnits="userSpaceOnUse">
      <stop stop-color="#E0F3FC" offset="0"/>
      <stop stop-color="#96C8ED" offset="1"/>
    </linearGradient>
  </defs>
</svg>