<svg xmlns="http://www.w3.org/2000/svg" width="250" height="250" fill="none" viewBox="1 5 240 240">
  <path
    d="m167 97.34c-8.45-12.89-8.98-29.15 0.09-43.68 7.06-11.29 18.92-17.38 29.5-17.94 4.63-0.25 5.25 4.24 3.85 7.45l-9.72 23.25c-2.31 5.65-0.93 11.29 5.49 14.66 2.99 1.58 6.28 3.07 10.53 3.37 5.48 0.38 9.58-2.77 11.35-7.69l9.73-24.5c1.67-3.35 6.25-3.84 8.62-0.55 7.38 8.98 10.73 21.25 8.8 33.2-2.8 15.46-14.09 27.9-30.92 32.52-9.1 2.72-12.48 9.63-16.07 21.94l-8.8-2.23 1.97-6.72c2.5-6.81 0.92-13.48-6.17-15.01-4.44-0.98-7.14 3.4-8.5 7.3l-36.5 79.35c-3.71 8.45 2.44 15.85 9.9 17.92 13.26 3.84 21.82-6.31 26.01-19.87l2.31-3.92c10.54-2.47 18.94-11.37 18.73-22.5-0.05-3.58-0.45-6.83-0.75-8.63 3.77-5.22 6.65-15.24 3.85-21.24-0.98-2.25-3.26-3.91-6.21-4.86"
     />
  <path
    d="m167 97.34c-8.45-12.89-8.98-29.15 0.09-43.68 7.06-11.29 18.92-17.38 29.5-17.94 4.63-0.25 5.25 4.24 3.85 7.45l-9.72 23.25c-2.31 5.65-0.93 11.29 5.49 14.66 2.99 1.58 6.28 3.07 10.53 3.37 5.48 0.38 9.58-2.77 11.35-7.69l9.73-24.5c1.67-3.35 6.25-3.84 8.62-0.55 7.38 8.98 10.73 21.25 8.8 33.2-2.8 15.46-14.09 27.9-30.92 32.52-9.1 2.72-12.17 9.88-15.76 22.19"
    stroke="#5A5D64" stroke-linecap="round" stroke-miterlimit="10" stroke-width="8" />
  <path d="m167.6 116c2.99-7.8 2.49-14.09-1.51-20.34" stroke="#5A5D64" stroke-linecap="round" stroke-miterlimit="10"
    stroke-width="8" />
  <path
    d="m177.9 164.3-12.36 34.62c-2.99 7.8-8.18 9.88-13.45 8.1-5.24-1.77-6.92-7.84-4.64-12.84l30.37-74.28c2.09-5.3 6.13-6.72 10.59-4.87 5.03 2.13 4.54 8.87 2.54 14.07l-3.46 9.62"
    stroke="#5A5D64" stroke-linecap="round" stroke-miterlimit="10" stroke-width="8" />
  <path
    d="m197 164.2c-2.99 4.7-8.14 7.58-14.25 4.51-8.83-4.35-7.96-18.63 0.46-26.62 5.73-5.56 13.63-4.9 17.14-1.44 5.86 5.56 1.4 17.1-3.35 23.55z"
    stroke="#5A5D64" stroke-linecap="round" stroke-miterlimit="10" stroke-width="8" />
  <path d="m177.7 196.4c10.55-2.47 20.1-11.72 19.35-27.5l-0.33-3.21" stroke="#5A5D64" stroke-linecap="round"
    stroke-miterlimit="10" stroke-width="8" />
  <path
    d="m167.4 117.2c-14.4-25.16-37.35-65.11-47.3-78.26-6.88-8.85-13.97-10.84-21.2-10.84-8.07 0-14.95 4.84-21.14 12.48-17.71 20.47-36.5 52.58-55.56 87.56"
     />
  <path
    d="m167.4 117.2c-14.4-25.16-37.35-65.11-47.3-78.26-6.88-8.85-13.97-10.84-21.2-10.84-8.07 0-14.95 4.84-21.14 12.48-17.71 20.47-36.5 52.58-55.56 87.56"
    stroke="#5A5D64" stroke-linecap="round" stroke-miterlimit="10" stroke-width="8" />
  <path
    d="m135.3 197.8c-30.25 0-71.41 1.42-95.11 0.3-13.03-0.62-19.99-2.18-27.22-8.68-10.88-10.07-8.61-24.35-2.97-35.63"
    stroke="#5A5D64" stroke-linecap="round" stroke-miterlimit="10" stroke-width="8" />
  <path d="m135.3 197.8c-1 9.34 3.75 18.19 14.55 21.15 12.65 3.69 22.45-5.16 26.77-19.86l10.54-29.9" stroke="#5A5D64"
    stroke-linecap="round" stroke-miterlimit="10" stroke-width="8" />
  <path d="m135.3 83.56c-9.24-16.71-21.93-43.37-35.41-43.37" stroke="#5A5D64" stroke-linecap="round"
    stroke-miterlimit="10" stroke-width="8" />
  <path d="m143.8 96.76-2.8-4.95" stroke="#5A5D64" stroke-linecap="round" stroke-miterlimit="10" stroke-width="8" />
  <path d="m169.5 65.61c2.9-8.85 9.25-15.35 17.4-18.94" stroke="#5A5D64" stroke-linecap="round" stroke-miterlimit="10"
    stroke-width="8" />
  <path d="m15.48 167.5c-1 9.54 5.63 19.43 21.43 19.81l0.42 0.03 0.36 0.03-0.67-0.06" stroke="#5A5D64"
    stroke-linecap="round" stroke-miterlimit="10" stroke-width="8" />
  <path
    d="m29.86 125.7c-10.88 3.99-20.83 14.71-21.04 23.56-0.1 6.54 5.33 11.43 11.19 10.81 8.3-0.88 14.11-7.38 18.4-15.25"
    stroke="#5A5D64" stroke-linecap="round" stroke-miterlimit="10" stroke-width="8" />
  <path
    d="m77.51 110.9c5.4 1.23 7.55-3.35 7.2-6.55-0.42-3.65-3.09-5.33-6.4-5.2-4.27 0.17-6.7 3.61-6.7 6.57 0 3.01 1.91 4.38 5.9 5.18z"
    fill="#5A5D64" />
  <path
    d="m120.1 112.3c5.24-0.61 6.64-5.25 5.97-8.21-0.95-4.1-4.31-5.08-6.62-4.83-4.06 0.45-5.73 3.97-5.68 6.63 0.05 3.75 2.67 6.82 6.33 6.41z"
    fill="#5A5D64" />
  <path d="m93.61 113.2c2.8 4.22 9.27 3.62 11.42-0.43" stroke="#5A5D64" stroke-linecap="round" stroke-miterlimit="10"
    stroke-width="8" />
  <path
    d="m69.52 121.7c4.69 0.56 7.1-1.67 7.1-3.28 0-2.25-2.7-3.05-6.21-3.05-3.99 0-6.79 1.45-6.79 3.35 0 1.63 2.27 2.61 5.9 2.98z"
    stroke="#5A5D64" stroke-linecap="round" stroke-miterlimit="10" stroke-width="2" />
  <path
    d="m127.1 121.9c5.02 0.23 7.22-2.11 7.17-3.51-0.11-2.35-3.1-3.13-6.61-3.2-3.71-0.1-6.22 1.4-6.17 3.35 0.05 1.85 1.77 3.19 5.61 3.36z"
    stroke="#5A5D64" stroke-linecap="round" stroke-miterlimit="10" stroke-width="2" />
  <path d="m210.7 108.8c9.44-1.9 18.24-8.29 22.73-16.5" stroke="#5A5D64" stroke-linecap="round" stroke-miterlimit="10"
    stroke-width="8" />
</svg>