<svg xmlns="http://www.w3.org/2000/svg" width="256" height="256" viewBox="0 0 256 256">
<!-- SVG created with Arrow, by QuiverAI (https://quiver.ai) -->
  <path d="m137.9 8.48c-2.89-4.86-6.82-5.98-9.95-5.98h0.18c-3.13 0-7.06 1.12-9.95 5.98l-113.2 194.3c-4.95 8.14 0.23 22.5 10.99 22.5h90.83l-3.9-5.25 10.88-13.15c-1.89-3.64-3.35-7.19-4.37-9.7l-16.12-0.93c-2.16-14.15-1.85-26.07-0.06-41.39l16.07-1.17c0.99-3.7 1.99-6.54 3.41-9.61l-9.65-12.25c9.28-13.23 17.76-21.73 28.42-29.4l12.45 11.1c3.9-2.47 6.76-3.93 10.4-5.13l0.68-16.19c9.63-1.43 20.02-1.83 31.1-1.19l-48.23-82.57z" fill="#333"/>
  <path d="m253.1 165.3c-0.25-2.1-1.09-2.54-2.72-2.63l-10.27-0.69c-1.41-0.09-2.11-0.85-2.4-2.31-1.48-5.88-3.33-10.45-5.84-14.64-0.76-1.3-0.57-2.41 0.43-3.59l6.66-7.96c0.98-1.23 0.95-2.91-0.22-4.32-5.53-6.69-9.58-10.93-15.33-14.84-1.31-0.93-2.71-0.35-3.83 0.73l-8.4 7.57c-0.94 0.41-1.98 0.21-3.05-0.47-5.53-3.3-9.26-4.89-15.23-6.5-1.45-0.44-2.42-1.2-2.45-2.83l-0.68-9.98c-0.15-1.78-0.86-2.79-2.77-3.02-7.77-0.99-13.89-1.03-20.85-0.36-1.91 0.16-2.65 0.69-3.06 2.68-0.56 2.78-0.69 7.01-0.94 10.97-0.09 1.58-1.14 2.56-2.59 2.92-5.71 1.57-9.64 3.34-14.19 5.92-1.31 0.76-2.77 0.5-3.96-0.73l-7.65-6.59c-1.3-1.18-2.86-0.98-4.26 0.21-6.6 5.56-11 10.12-14.47 14.56-1.25 1.61-1.17 3.12 0.07 4.68l6.54 8c0.97 1.27 0.97 2.68 0.07 4.24-2.84 5.03-4.37 8.94-5.71 13.62-0.48 1.73-1.45 2.61-3.23 2.61l-9.27 0.55c-1.9 0.06-2.9 0.82-3.15 2.91-0.9 8.38-0.85 14.71-0.15 20.02 0.25 2.09 1.1 2.9 3 3.02l9.91 0.69c1.63 0.16 2.53 1.04 2.94 2.82 1.46 5.72 3.25 10.2 5.63 14.44 0.76 1.41 0.5 2.69-0.74 3.97l-6.02 7.11c-1.31 1.56-1.31 2.87-0.07 4.49 5.36 6.33 9.52 10.48 14.5 14.92 1.56 1.27 3.05 0.97 4.36-0.3l7.89-7.32c1.04-0.76 2.23-0.71 3.54 0.16 5.22 3.25 9.96 5.14 14.57 6.22 1.69 0.45 2.54 1.32 2.51 3.1l0.49 10.03c0.09 1.93 0.89 3.11 3.07 3.27 7.83 0.7 13.95 0.55 21.12-0.26 2.05-0.26 2.61-1.24 2.7-3.01l0.7-9.83c0.15-1.61 1.12-2.49 2.81-2.9 5.53-1.56 9.8-3.44 14.6-6.27 1.4-0.81 2.71-0.71 3.95 0.42l7.25 7.1c1.31 1.27 2.77 0.96 4.29-0.4 6.08-5.13 10.48-9.86 15.31-15.64 1.09-1.46 0.9-2.92-0.34-4.38l-6.42-7.63c-1.08-1.28-1.05-2.5-0.12-4.07 3.14-5.42 4.87-9.66 6.14-13.71 0.48-1.72 1.38-2.48 3.07-2.53l9.27-0.71c2.06-0.16 2.86-0.97 3.11-3.06 0.76-7.82 0.51-14-0.12-20.47zm-76.62 52.8c-24.08 0-43.37-20.27-43.37-41.84 0-23.81 19.14-42.93 43.37-42.93 23.67 0 42.23 20.42 42.23 43.14 0 22.52-19.29 41.63-42.23 41.63z" fill="#333"/>
</svg>