<svg xmlns="http://www.w3.org/2000/svg" width="256" height="256" viewBox="0 0 256 256">
<!-- SVG created with Arrow, by QuiverAI (https://quiver.ai) -->
  <path d="m148.8 14.9c-5.38-9.62-14.17-12.39-20.76-12.39-10.1 0-18.24 5.54-21.45 12.79l-95.77 167.9c-6.66 11.55-2.95 25.5 7.14 33.33 5.43 4.32 11.27 6.31 17.39 6.31h50.11l65.62-71.88-15.66-15.39c-7.45-7.12-5.72-18.34 0-23.24l27.36-28.91c7.36-7.27 18.35-6.45 24.85-0.3l-0.35-0.62-38.48-67.56z" fill="#3C4851"/>
  <path d="m245.2 182.9-17.4 18.42c-7.04 7.09-18.88 4.59-23.79-0.45l-15.15-14.1-34.09 35.99h65.59c15.09 0 27.39-13.74 27.39-27.41 0-4.81-0.99-8.65-2.94-12.53l0.39 0.08z" fill="#3C4851"/>
  <path d="m246.6 155.7-67.7-64.41c-2.47-2.42-5.96-1.58-7.47 0.16l-26.75 29.38c-2.2 2.15-2.65 5.66 0.2 8.07l24.06 21.7-77.06 83.6c-2.22 2.43-1.69 5.89 0.8 7.9l11.2 10.36c2.51 2.35 6.08 1.22 7.01-0.55l77.55-82.11 22.95 21.13c2.43 2.72 5.75 2.25 7.1 0.32l28.24-28.22c2.16-2.5 1.95-5.48-0.13-7.33z" fill="#3C4851"/>
  <path d="m215.4 106.7c-1.86-1.45-4.65-0.83-5.7 0.75l-3.09 3.39 20.08 18.46 2.91-3.62c1.92-2.43 1.79-5.2-0.14-6.79l-14.06-12.19z" fill="#3C4851"/>
</svg>