<svg xmlns="http://www.w3.org/2000/svg" width="24" height="24" viewBox="-2 0 256 256">
  <!-- SVG created with Arrow, by QuiverAI (https://quiver.ai) -->
  <path
    d="m118.8 3c-48.49-0.89-87.87 64.09-105.8 112.1-5.61 15.63-8.67 28.94-9.11 44.72-1.15 26.07 19.91 57.86 50.4 57.86h66.35c0.28-1.72 0.36-2.54 0.75-4.19-8.89-5.75-12.44-12.86-12.4-25.56h-62.11c-13.22 0-23.47-10.36-23.47-21.57 0-21.17 30.92-96.11 69.28-132.7 10.76-9.17 20.06-11.75 26.12-11.62 32.05 0 60.98 43.06 78.11 88.27 8.17 1.8 13.06 6.83 15.21 11.55 3.95-0.81 6.96-0.97 10.55-0.45-19.59-52.36-56.79-117.5-103.9-118.4z"
    fill="#FFF" />
  <path
    d="m98.02 75.35c-7.8 0-11.03 6.76-11.03 11.74 0 7.18 5.74 10.82 11.03 10.69 7.11 0 11.17-5.92 11.17-10.69 0-6.68-4.97-11.74-11.17-11.74z"
    fill="#FFF" />
  <path
    d="m143 75.35c-8.06 0-12.04 6.93-12.04 11.78 0 7.08 5.54 10.74 11.87 10.65 7.41-0.12 10.56-6.6 10.56-10.65 0-6.97-5.06-11.78-10.39-11.78z"
    fill="#FFF" />
  <path
    d="m241.8 168.9-4.62-0.76c-0.45-1.17-0.77-2.09-1.15-2.97l2.83-3.86c4.62-5.59 2.85-13.62-1.78-17.42l-8.3-8.48c-4.87-4.92-12.36-4.6-16.72-0.04l-3.74 2.57c-0.94-0.46-1.92-0.92-2.64-1.22l-0.78-5.63c-1.25-6.42-6.25-10.35-11.8-10.35h-13.48c-7.52 0-11.52 6.33-12.22 11.63l-0.73 4.01c-1.07 0.46-2 0.89-2.89 1.35l-5-3.84c-5.48-3.64-12.08-2.75-16.03 1.77l-8.04 8.4c-5.68 5.01-5.51 13.66 0.47 19.95l0.77 2.09c-0.65 1.29-1.15 2.55-1.49 3.22l-5 0.63c-6.36 1.33-9.11 7.03-9.11 10.71v13.28c-0.34 6.16 4.57 10.24 9.97 10.82l4.95 0.72c0.38 1.09 0.81 2.09 1.26 3.01l-3.18 4.48c-4.14 5.84-2.99 13.33 1.75 17.4l9.1 8.57c5 4.65 12.57 3.81 17.57-1.16l1.97-1.41c1.07 0.63 2.27 1.2 3.37 1.66l0.79 5.06c1.34 5.74 5.7 9.99 11.33 9.99h13.08c6.81 0 11.3-5.59 11.8-11.02l0.69-4.57c0.93-0.33 1.86-0.75 2.8-1.21l4.2 3.25c5.77 4.14 12.97 3.09 17.07-2.2l8.43-8.56c5-4.97 4.37-12.79-0.89-18.18l-0.5-1.89c0.61-1.22 1.15-2.43 1.49-3.43l5.32-0.88c5.98-1.05 9.45-6.52 9.45-9.92v-14.39c0-6.51-5.46-10.59-10.37-11.18zm-3.7 21.97-8.14 1.5c-3.15 0.63-4.79 3.4-5.56 6.65-0.69 2.35-1.7 4.65-3.09 7.26-1.51 3.08-0.91 6.6 1.51 9.29l2.88 4.38-6.64 7.86-7.17-5.21c-2.66-1.67-5.81-1.58-8.56 0.17-1.98 1-4.08 1.88-6.63 2.72-3.07 1.13-5.32 3.78-5.65 7.18l-0.98 6.48h-8.57l-1.52-8.98c-0.77-3.04-3.1-4.9-6.05-5.61-2.75-0.76-5.33-1.87-7.76-3.2-2.75-1.28-6.07-0.78-8.41 1.41l-5.54 4.36-6.47-6.75 4.48-6.66c1.98-2.92 1.53-6.68-0.62-9.6-1.06-2.05-1.89-4.35-2.53-6.65-0.93-2.57-3.18-4.43-5.93-4.69l-7.57-1.41v-9.1l7.78-1.44c3.34-0.55 5.36-2.81 6.25-6.15 0.69-2.39 1.7-4.69 3-6.88 1.6-2.92 1-6.68-1.25-9.33l-3.74-5.97 6.34-6.74 7.21 4.71c2.57 1.81 5.81 1.4 8.56-0.65 1.98-1.18 4.18-2.23 6.72-3.03 3.07-1.04 4.96-3.65 5.46-7.21l1.14-5.69h9.45l1.21 7.69c0.5 3.2 2.79 5.69 6.03 6.69 2.48 0.72 4.87 1.81 7.12 3.22 2.92 1.81 6.39 1.35 9.05-1.22l5.46-4.21 6.81 6.87-4.57 6.25c-2.11 2.92-1.94 6.76 0.16 9.68 1.38 2.44 2.54 5.13 3.43 7.03 1.02 2.69 3.27 4.06 6.06 4.48l6.85 1.13v9.37h-0.01z"
    fill="#FFF" />
  <path
    d="m186 158.2c-15.93 0-28.55 13.42-28.55 29.05 0 15.22 11.99 26.94 28.21 26.94 15.85 0 27.75-13.51 27.75-27.16 0-15-12.46-28.83-27.41-28.83zm-0.04 42.93c-9.02 0-14.61-7.61-14.61-14.05 0-8.56 6.81-14.49 14.52-14.49 8.9 0 14.17 7.7 14.17 14.27 0 8.16-6.64 14.27-14.08 14.27z"
    fill="#FFF" />
</svg>