<svg xmlns="http://www.w3.org/2000/svg" width="256" height="256" viewBox="0 0 256 256">
  <path d="m145.5 16.11c-4.69-7.75-10.66-9.61-17.48-9.61s-13.39 2.78-17.48 9.61l-84.6 146.1c-8.31 14.03 0.84 33.87 19.91 33.87h13.1c-1.17-4-0.58-9.8-0.38-16.17 0.22-6.01 3.22-9.69 9.28-10.7l7.91-1.68 1.42-5.2-4.77-7.62c-2.88-4.61-2.26-10.05 1.74-13.96 3.78-4.02 5.78-6.15 9.91-10.35 4.07-3.87 8.93-4 13.17-0.9l6.76 4.3 5.76-2.63 1.05-7.27c1.04-6.16 4.84-8.83 10.47-8.83h13.71c6.05 0 8.96 3.66 10.26 9.83l1.35 6.62 4.87 1.88 7.55-5.05c4.07-2.15 8.62-1.9 12.19 1.76 4.23 4.34 6.8 7.07 10.73 11.52 3.72 4.27 4.22 9.25 1.03 13.93l-4.52 6.54 1.81 5.31 8.05 1.79c6.23 1.04 8.63 5.95 8.73 11.9 0.24 6.48 0.5 11.12-0.35 14.98h13.51c15.82 0 27.11-16.84 19.91-32.13l-84.6-147.8z" fill="#000"/>
  <path d="m187.4 176.4-12.65-2.43c-1.26-5.23-2.26-7.92-4.69-12.85l6.66-10.33c1.52-2.11 0.57-4.07-0.22-4.99l-8.78-9.75c-1.53-1.62-3.29-1.72-4.81-0.7l-10.8 7.76c-4.97-3.14-6.8-4.07-12.47-5.8l-2.23-12.69c-0.35-2.2-1.41-2.83-3.74-2.94-3.35-0.16-8.51-0.2-11.53 0-2.05 0.14-3.4 0.62-3.84 2.94l-2.43 12.29c-5.77 1.83-7.72 2.65-12.23 5.79l-10.38-7.05c-1.64-1.23-3.16-0.41-4.32 0.83l-9 9.52c-1.52 1.63-1.87 3.46-0.62 5.4l7.22 9.42c-2.65 5.03-3.6 7.26-5.24 12.6l-12.74 2.63c-1.74 0.41-2.28 1.94-2.37 3.88-0.35 4.74-0.53 8.99 0 13.03 0.18 1.43 1.04 2.46 3.09 2.97l12.56 2.63c1.26 5.44 2.12 7.68 4.64 12.21l-7.33 11.48c-1.16 1.73-0.46 3.16 0.79 4.59 3.35 3.85 5.5 5.99 9.62 9.55 1.26 1.13 2.61 0.51 3.87-0.51l10.21-7.16c5.05 3.25 7 3.97 12.86 5.7l2.24 13.1c0.26 1.43 1.04 1.84 2.95 1.94 4.59 0.31 8.55 0.1 12.78-0.1 1.63-0.1 2.07-0.92 2.42-2.65l2.52-12.39c5.77-1.73 8.28-2.86 12.53-5.69l11.07 7.76c1.74 1.23 2.9-0.1 3.96-1.13 3.79-3.49 6.03-5.92 9.14-9.77 1.17-1.43 0.91-2.76-0.25-4.49l-6.41-10.64c2.89-4.94 3.84-7.28 5.01-11.49l12.94-2.94c1.95-0.51 2.3-1.23 2.48-3.38 0.26-4.75 0-8.8-0.44-13.34-0.18-1.53-0.87-2.55-2.04-2.81zm-59.37 38.04c-16.75 0-28.52-14.41-28.52-28.62 0-15.8 12.47-30 28.3-30 15.48 0 28.13 13.59 28.13 30.31 0 14.89-12.29 28.31-27.91 28.31z" fill="#000"/>
</svg>