<svg xmlns="http://www.w3.org/2000/svg" width="250" height="250" viewBox="0 0 250 250">
<!-- SVG created with Arrow, by QuiverAI (https://quiver.ai) -->
  <path d="m133.5 9.32c-5.82-9.31-18.66-8.84-21.47-3.2l-106.8 180.8c-4.22 6.9-2.47 16.9 4.91 21.87 2.94 2.03 6.04 2.66 8.22 2.57h156.4l-42.46-41.8c-18.19 4.17-34.22-1.76-44.1-15.36-7.45-10.32-9.56-21.69-7.57-33.95 1.47-8.02 10.23-9.28 14.48-5.03l16.53 15.79c1.99 1.75 4.71 0.64 5.69-0.82l7.72-8.36c1.81-2.18 1.28-5.2-0.19-6.53l-15.23-15.05c-6-5.57-2.53-13.84 4.36-14.89 15.79-2.72 30.77 1.89 41.29 13.57 9.36 10.9 11.93 23.95 9.9 35.24l75.55 69.8c3.91-6.62 2.9-14.02 0-17.85l-107.2-176.8z" fill="#353535"/>
  <path d="m157.8 136.1c3.69-14.05-1.81-29.84-12.86-38.13-8.65-6.71-17.65-7.92-28.55-6.71-3.69 0.31-3.8 3.63-1.89 5.44l14.69 14.69c5.14 4.87 3.75 12.17 0 15.51l-8.6 8.89c-3.42 3.42-10.17 3.01-13 0l-15.79-15.79c-1.91-2.3-4.39-1.36-4.78 0.91-3.34 14.21 5.24 32.06 20.31 40.35 9.06 4.45 18.03 3.75 26.7 1.44l79.68 79.39c8.58 7.88 20.93 5.65 28.38-2.59 7.1-7.91 5.6-19.46-0.4-25.8l-83.89-77.6zm70 102.4c-7.31 0-11.66-6.4-11.66-11.28 0-7.02 5.5-11.42 11.07-11.42 7.31 0 11.22 5.91 11.22 11.42 0 6.24-5.14 11.28-10.63 11.28z" fill="#353535"/>
</svg>