<svg xmlns="http://www.w3.org/2000/svg" viewBox="0 0 16 16" fill="none">
  <path d="M3 2.75c0-.69.56-1.25 1.25-1.25h8.25c.83 0 1.5.67 1.5 1.5v10.25c0 .69-.56 1.25-1.25 1.25h-8.5C3.56 14.5 3 13.94 3 13.25V2.75Z" fill="#F5B15E"/>
  <path d="M4.25 1.5h1.9v13h-1.9C3.56 14.5 3 13.94 3 13.25V2.75c0-.69.56-1.25 1.25-1.25Z" fill="#59361B"/>
  <path d="M12.5 1.5H4.25C3.56 1.5 3 2.06 3 2.75v10.5c0 .69.56 1.25 1.25 1.25h8.5c.69 0 1.25-.56 1.25-1.25V3c0-.83-.67-1.5-1.5-1.5Z" stroke="#59361B" stroke-width="1.25" stroke-linejoin="round"/>
  <path d="M10.25 1.5h2.25c.83 0 1.5.67 1.5 1.5v5.75l-1.9-1.3-1.85 1.3V1.5Z" fill="#13A5A5"/>
  <path d="M7.6 11.15h3.25" stroke="#59361B" stroke-width="1.25" stroke-linecap="round"/>
</svg>
