<svg xmlns="http://www.w3.org/2000/svg" viewBox="0 0 16 16" fill="none">
  <path d="M2.5 3.25c0-.69.56-1.25 1.25-1.25h8.5c.69 0 1.25.56 1.25 1.25v9.5c0 .69-.56 1.25-1.25 1.25h-8.5c-.69 0-1.25-.56-1.25-1.25v-9.5Z" fill="#F3A03A"/>
  <path d="M12.25 2h-8.5C3.06 2 2.5 2.56 2.5 3.25v9.5c0 .69.56 1.25 1.25 1.25h8.5c.69 0 1.25-.56 1.25-1.25v-9.5c0-.69-.56-1.25-1.25-1.25Z" stroke="#59361B" stroke-width="1.25" stroke-linejoin="round"/>
  <path d="M4.55 6.25 6.2 4.35l1.65 1.9" stroke="#59361B" stroke-width="1.25" stroke-linecap="round" stroke-linejoin="round"/>
  <path d="M4.7 8.15H3.95v3h.75M7.25 8.15H8v3h-.75" stroke="#59361B" stroke-width="1.25" stroke-linecap="round" stroke-linejoin="round"/>
  <path d="M10.85 8.35v2.6M9.68 9l2.26 1.3m0-1.3-2.26 1.3" stroke="#13A5A5" stroke-width=".95" stroke-linecap="round"/>
</svg>
